<?xml version="1.0" encoding="utf-8"?>
<!-- Generator: Adobe Illustrator 23.0.1, SVG Export Plug-In . SVG Version: 6.00 Build 0)  -->
<svg version="1.1" id="Ebene_4" xmlns="http://www.w3.org/2000/svg" xmlns:xlink="http://www.w3.org/1999/xlink" x="0px" y="0px"
	 viewBox="0 0 4507.2 1024.1" style="enable-background:new 0 0 4507.2 1024.1;" xml:space="preserve">
<style type="text/css">
	.st0{fill:url(#SVGID_1_);}
	.st1{fill:url(#SVGID_2_);}
	.st2{fill:url(#SVGID_3_);}
	.st3{fill:url(#SVGID_4_);}
	.st4{fill:url(#SVGID_5_);}
	.st5{fill:url(#SVGID_6_);}
	.st6{fill:url(#SVGID_7_);}
	.st7{fill:url(#SVGID_8_);}
	.st8{fill:url(#SVGID_9_);}
	.st9{fill:url(#SVGID_10_);}
	.st10{fill:url(#SVGID_11_);}
	.st11{fill:url(#SVGID_12_);}
</style>
<title>Logo-TeamViewer-2016</title>
<linearGradient id="SVGID_1_" gradientUnits="userSpaceOnUse" x1="1327.9263" y1="478.4097" x2="1327.9263" y2="588.4993" gradientTransform="matrix(1 0 0 -1 0 1021.89)">
	<stop  offset="0" style="stop-color:#096FD2"/>
	<stop  offset="1" style="stop-color:#0B7FDD"/>
</linearGradient>
<polygon class="st0" points="1289.2,433.4 1274.6,468.7 1381.6,468.7 1367.1,433.4 1475.7,488.4 1367.1,543.5 1381.6,508.2 
	1274.6,508.2 1289.1,543.5 1180.1,488.4 "/>
<linearGradient id="SVGID_2_" gradientUnits="userSpaceOnUse" x1="1327.6444" y1="337.1212" x2="1327.6444" y2="729.7265" gradientTransform="matrix(1 0 0 -1 0 1021.89)">
	<stop  offset="0" style="stop-color:#0564C8"/>
	<stop  offset="1" style="stop-color:#0E8EE9"/>
</linearGradient>
<path class="st1" d="M1501,684.8h-346.6c-12.7,0-23-10.3-23-23V315.2c0-12.7,10.3-23,23-23H1501c12.7,0,23,10.3,23,23v346.6
	C1523.9,674.5,1513.7,684.7,1501,684.8z M1326.2,326.7c-88.4,0.8-159.7,73.3-160.3,161.8c-0.6,90.1,71.7,161.7,161.8,161.8
	c88.6,0,160.3-73.6,161.8-161.8C1491,397.3,1417.3,325.9,1326.2,326.7z"/>
<g>
	
		<linearGradient id="SVGID_3_" gradientUnits="userSpaceOnUse" x1="1672.5735" y1="450.2854" x2="1672.5735" y2="617.3635" gradientTransform="matrix(1 0 0 -1 0 1021.89)">
		<stop  offset="0" style="stop-color:#096FD2"/>
		<stop  offset="1" style="stop-color:#0E8EE9"/>
	</linearGradient>
	<polygon class="st2" points="1652.8,571.6 1652.8,436 1604.4,436 1604.4,404.5 1740.7,404.5 1740.7,436 1692.3,436 1692.3,571.6 	
		"/>
	
		<linearGradient id="SVGID_4_" gradientUnits="userSpaceOnUse" x1="1774.4227" y1="446.0108" x2="1774.4227" y2="572.1599" gradientTransform="matrix(1 0 0 -1 0 1021.89)">
		<stop  offset="0" style="stop-color:#096FD2"/>
		<stop  offset="1" style="stop-color:#0E8EE9"/>
	</linearGradient>
	<path class="st3" d="M1774.9,575.9c-10.2,0-29.2-1.9-41.6-14.9c-10.1-10.6-15.2-26-15.2-45.9c0-25.6,8.3-44.3,24.6-55.6
		c9.7-6.4,21.1-9.9,33.2-9.9c12.7,0,35.7,3.7,47.9,28.7c8.2,16.7,7.3,34.9,7,42.7l-0.1,2.1h-76.1c0.3,11.7,3.3,25.9,20.9,25.9
		c9.6,0,15.3-4.5,17.6-14.1l0.4-1.7h34.5l-0.2,2.4c-0.4,4.6-1.3,15.5-11.4,26.1C1807.9,570.8,1792.8,575.9,1774.9,575.9z
		 M1792.2,497.9c-0.4-10.1-4-21-17.5-21c-14.6,0-18.2,13.2-19,21H1792.2L1792.2,497.9z"/>
	
		<linearGradient id="SVGID_5_" gradientUnits="userSpaceOnUse" x1="1899.9716" y1="447.5865" x2="1899.9716" y2="571.7152" gradientTransform="matrix(1 0 0 -1 0 1021.89)">
		<stop  offset="0" style="stop-color:#096FD2"/>
		<stop  offset="1" style="stop-color:#0E8EE9"/>
	</linearGradient>
	<path class="st4" d="M1886.2,574.3c-17.7,0-25.5-5.5-29.9-9.6c-6.7-6.7-10.6-16.4-10.6-26.6c0-9.6,3.3-27.1,25.4-37.3
		c13.5-6.1,32.3-6.5,43.7-6.5c0-5.9-0.3-8.8-1.5-12.2c-2.7-7.6-11.1-7.9-12.7-7.9c-4.5,0-8.5,2-10.8,5.3c-2.1,3.2-2.1,6.4-2.1,8.9
		v2.2h-37.1l0.1-2.3c0.2-5.7,0.7-19.1,13.7-28.5c8.9-6.4,20.9-9.6,35.7-9.6c10.8,0,30.6,2,42.2,15.4c8.4,10.1,8.4,24.6,8.4,29.3
		l0.2,45.7c0,10.7,0.9,20,2.6,28.3l0.6,2.7h-34.8l-0.3-1.9c-0.5-3.2-0.9-6.4-1-9.6C1905.7,574.3,1891.8,574.3,1886.2,574.3z
		 M1910.4,517.8c-13.5,0-27.8,4.3-27.8,16.5c0,6.7,4.4,14,14,14c4.8,0,9.4-2.1,12.5-5.8c5-6.2,5.7-13.9,5.8-24.6
		C1913.3,517.8,1911.8,517.8,1910.4,517.8L1910.4,517.8z"/>
	
		<linearGradient id="SVGID_6_" gradientUnits="userSpaceOnUse" x1="2066.3154" y1="450.2854" x2="2066.3154" y2="570.799" gradientTransform="matrix(1 0 0 -1 0 1021.89)">
		<stop  offset="0" style="stop-color:#096FD2"/>
		<stop  offset="1" style="stop-color:#0E8EE9"/>
	</linearGradient>
	<path class="st5" d="M2121.1,571.6v-69c0-14.1-2.9-23.4-16.9-23.4c-16.9,0-18.3,14.4-18.3,33.3v59.1h-38v-69.7
		c0-11-1.3-22.8-16.5-22.8c-18.7,0-18.7,15.8-18.7,23.4v69h-38v-94.5c0-6.3-0.4-13-1.1-21.2l-0.2-2.4h36.7l0.9,11
		c5.2-5.8,15.1-13.5,33.3-13.5c12,0,27.5,3.4,35.9,18.8c7.9-12.5,19.8-18.6,36.3-18.6c23.4,0,33.4,13.5,36.6,19.4
		c6,9.7,5.9,23,5.9,32.7v68.2L2121.1,571.6L2121.1,571.6z"/>
	
		<linearGradient id="SVGID_7_" gradientUnits="userSpaceOnUse" x1="2240.7007" y1="450.2854" x2="2240.7007" y2="617.1373" gradientTransform="matrix(1 0 0 -1 0 1021.89)">
		<stop  offset="0" style="stop-color:#096FD2"/>
		<stop  offset="1" style="stop-color:#0E8EE9"/>
	</linearGradient>
	<polygon class="st6" points="2231.2,571.6 2170.2,404.8 2190.9,404.8 2241.7,548.7 2291.9,404.8 2311.2,404.8 2250.9,571.6 	"/>
	
		<linearGradient id="SVGID_8_" gradientUnits="userSpaceOnUse" x1="2334.4048" y1="450.2854" x2="2334.4048" y2="617.1373" gradientTransform="matrix(1 0 0 -1 0 1021.89)">
		<stop  offset="0" style="stop-color:#096FD2"/>
		<stop  offset="1" style="stop-color:#0E8EE9"/>
	</linearGradient>
	<path class="st7" d="M2325.4,571.6V454.2h17.9v117.4H2325.4z M2324.3,426v-21.3h20.2v21.3L2324.3,426L2324.3,426z"/>
	
		<linearGradient id="SVGID_9_" gradientUnits="userSpaceOnUse" x1="2419.8091" y1="446.9079" x2="2419.8091" y2="571.0175" gradientTransform="matrix(1 0 0 -1 0 1021.89)">
		<stop  offset="0" style="stop-color:#096FD2"/>
		<stop  offset="1" style="stop-color:#0E8EE9"/>
	</linearGradient>
	<path class="st8" d="M2418.3,575c-35.7,0-51.7-31.2-51.7-62.1c0-29.9,16.5-62.1,52.6-62.1c34.6,0,53.7,23.2,53.7,65.2v2.2h-87.2
		c0.7,13.6,6,39.9,36.9,39.9c14.7,0,27.2-10.4,30.5-25.3l0.4-1.7h18.8l-0.7,2.8C2464.4,561.6,2447,575,2418.3,575z M2453.7,501.5
		c-2.3-21.5-14.7-33.8-34.2-33.8c-21.1,0-30.9,17.7-33.1,33.8H2453.7z"/>
	
		<linearGradient id="SVGID_10_" gradientUnits="userSpaceOnUse" x1="2572.0122" y1="450.2854" x2="2572.0122" y2="567.6438" gradientTransform="matrix(1 0 0 -1 0 1021.89)">
		<stop  offset="0" style="stop-color:#096FD2"/>
		<stop  offset="1" style="stop-color:#0E8EE9"/>
	</linearGradient>
	<polygon class="st9" points="2605.8,571.6 2572.4,477.9 2538.5,571.6 2521.6,571.6 2478.6,454.2 2498.2,454.2 2530.6,545.7 
		2563.5,454.2 2582.6,454.2 2614.5,544.7 2645.8,454.2 2665.4,454.2 2621.7,571.6 	"/>
	
		<linearGradient id="SVGID_11_" gradientUnits="userSpaceOnUse" x1="2723.2991" y1="446.9079" x2="2723.2991" y2="571.0175" gradientTransform="matrix(1 0 0 -1 0 1021.89)">
		<stop  offset="0" style="stop-color:#096FD2"/>
		<stop  offset="1" style="stop-color:#0E8EE9"/>
	</linearGradient>
	<path class="st10" d="M2721.8,575c-35.7,0-51.7-31.2-51.7-62.1c0-29.9,16.5-62.1,52.6-62.1c34.6,0,53.7,23.2,53.7,65.2v2.2h-87.2
		c0.7,13.6,6,39.9,36.8,39.9c14.7,0,27.2-10.4,30.5-25.3l0.4-1.7h18.8l-0.7,2.8C2767.9,561.6,2750.5,575,2721.8,575z M2757.2,501.5
		c-2.3-21.5-14.7-33.8-34.2-33.8c-21.1,0-30.9,17.7-33.1,33.8H2757.2z"/>
	
		<linearGradient id="SVGID_12_" gradientUnits="userSpaceOnUse" x1="2829.9807" y1="450.2854" x2="2829.9807" y2="571.098" gradientTransform="matrix(1 0 0 -1 0 1021.89)">
		<stop  offset="0" style="stop-color:#096FD2"/>
		<stop  offset="1" style="stop-color:#0E8EE9"/>
	</linearGradient>
	<path class="st11" d="M2802,571.6v-89.7c0.2-6.6-0.3-13.4-0.7-19.5c-0.1-2-0.3-3.9-0.4-5.8l-0.1-2.3h18.4l0.4,10.9
		c5.5-8.4,14.4-13.9,23.9-14.3c1.3-0.1,2.7-0.1,4-0.1c3.2,0,6.5,0.2,9.6,0.3l2.1,0.1l0,2.1v15.5l-2.4-0.2c-1.1-0.1-2.3-0.3-3.4-0.4
		c-1.6-0.3-3.1-0.4-4.7-0.5c-17.9,0-28.4,12.3-28.8,33.8v70.1H2802L2802,571.6z"/>
</g>
</svg>
